<svg width="77" height="25" viewBox="0 0 77 25" fill="none" xmlns="http://www.w3.org/2000/svg">
<path d="M33.2369 13.1564C33.2369 16.7532 30.4231 19.4036 26.97 19.4036C23.5169 19.4036 20.7031 16.7532 20.7031 13.1564C20.7031 9.53424 23.5169 6.90918 26.97 6.90918C30.4231 6.90918 33.2369 9.53424 33.2369 13.1564ZM30.4936 13.1564C30.4936 10.9087 28.8628 9.37088 26.97 9.37088C25.0773 9.37088 23.4465 10.9087 23.4465 13.1564C23.4465 15.3815 25.0773 16.9419 26.97 16.9419C28.8628 16.9419 30.4936 15.3787 30.4936 13.1564Z" fill="#C9B8CC"/>
<path d="M46.7564 13.1564C46.7564 16.7532 43.9427 19.4036 40.4896 19.4036C37.0364 19.4036 34.2227 16.7532 34.2227 13.1564C34.2227 9.53706 37.0364 6.90918 40.4896 6.90918C43.9427 6.90918 46.7564 9.53424 46.7564 13.1564ZM44.0131 13.1564C44.0131 10.9087 42.3823 9.37088 40.4896 9.37088C38.5968 9.37088 36.966 10.9087 36.966 13.1564C36.966 15.3815 38.5968 16.9419 40.4896 16.9419C42.3823 16.9419 44.0131 15.3787 44.0131 13.1564Z" fill="#C9B8CC"/>
<path d="M59.7125 7.2866V18.5022C59.7125 23.1158 56.9916 25.0001 53.7751 25.0001C50.7473 25.0001 48.9249 22.975 48.2377 21.3188L50.6261 20.3246C51.0515 21.3414 52.0936 22.5412 53.7723 22.5412C55.8312 22.5412 57.1071 21.2709 57.1071 18.8797V17.9812H57.0114C56.3973 18.7388 55.2144 19.4007 53.7216 19.4007C50.598 19.4007 47.7363 16.6799 47.7363 13.1789C47.7363 9.65253 50.598 6.90918 53.7216 6.90918C55.2116 6.90918 56.3945 7.57108 57.0114 8.30621H57.1071V7.28942H59.7125V7.2866ZM57.3015 13.1789C57.3015 10.9791 55.834 9.37088 53.9666 9.37088C52.0739 9.37088 50.4881 10.9791 50.4881 13.1789C50.4881 15.3561 52.0739 16.9419 53.9666 16.9419C55.834 16.9419 57.3015 15.3561 57.3015 13.1789Z" fill="#C9B8CC"/>
<path d="M64.0078 0.712646V19.0205H61.332V0.712646H64.0078Z" fill="#C9B8CC"/>
<path d="M74.4352 15.2124L76.5645 16.6319C75.8773 17.6487 74.2211 19.4006 71.3595 19.4006C67.8106 19.4006 65.1602 16.6573 65.1602 13.1534C65.1602 9.43836 67.8331 6.90625 71.0525 6.90625C74.2943 6.90625 75.8801 9.48624 76.3983 10.8805L76.6828 11.5902L68.3316 15.049C68.971 16.3024 69.9653 16.9417 71.3595 16.9417C72.7565 16.9417 73.7254 16.2545 74.4352 15.2124ZM67.881 12.9647L73.4634 10.6467C73.1564 9.86648 72.2326 9.32288 71.1454 9.32288C69.7512 9.32288 67.8106 10.5537 67.881 12.9647Z" fill="#C9B8CC"/>
<path d="M10.5747 11.5311V8.8807H19.506C19.5934 9.34262 19.6384 9.88903 19.6384 10.4805C19.6384 12.469 19.0948 14.9279 17.3429 16.6798C15.6389 18.4543 13.4617 19.4006 10.5775 19.4006C5.2316 19.4006 0.736328 15.0462 0.736328 9.70032C0.736328 4.35444 5.2316 0 10.5775 0C13.5349 0 15.6417 1.16043 17.2246 2.67294L15.3544 4.54315C14.2193 3.47848 12.6815 2.65041 10.5747 2.65041C6.67087 2.65041 3.61769 5.79653 3.61769 9.70032C3.61769 13.6041 6.67087 16.7502 10.5747 16.7502C13.1068 16.7502 14.5489 15.7335 15.4727 14.8096C16.2219 14.0604 16.7148 12.9901 16.9092 11.5283L10.5747 11.5311Z" fill="#C9B8CC"/>
</svg>
