<svg width="150" height="150" viewBox="0 0 150 150" fill="none" xmlns="http://www.w3.org/2000/svg">
<rect width="150" height="150" rx="75" fill="#FCF7FC"/>
<path fill-rule="evenodd" clip-rule="evenodd" d="M89.8887 55H60.1113C57.2929 55 55 57.293 55 60.1114V89.8887C55 92.707 57.2929 95 60.1113 95H89.8887C92.7071 95 95 92.707 95 89.8886V60.1114C95 57.293 92.7071 55 89.8887 55ZM92.6439 89.8887C92.6439 91.408 91.4079 92.6439 89.8886 92.6439H60.1113C58.592 92.6439 57.356 91.4079 57.356 89.8887V85.5913L65.1103 78.9935C65.3933 78.7527 65.8061 78.7505 66.0917 78.9877L70.949 83.0211C71.4174 83.4099 72.1049 83.378 72.5353 82.9472L84.0766 71.3883C84.2852 71.1793 84.5284 71.159 84.6554 71.1655C84.7819 71.172 85.0222 71.2171 85.2083 71.4464L92.644 80.6019V89.8887H92.6439ZM87.0372 69.9609L92.6439 76.8644V60.1114C92.6439 58.5921 91.4079 57.3561 89.8886 57.3561H60.1113C58.592 57.3561 57.356 58.5921 57.356 60.1114V82.4978L63.5835 77.1992C64.7405 76.2148 66.4283 76.2047 67.597 77.1751L71.6275 80.5219L82.4093 69.7234C83.0325 69.0992 83.8958 68.7678 84.7761 68.8123C85.657 68.8576 86.4811 69.2762 87.0372 69.9609Z" fill="#E266ED" fill-opacity="0.6"/>
<path fill-rule="evenodd" clip-rule="evenodd" d="M61.9561 65.6354C61.9561 62.5005 64.5065 59.9498 67.6417 59.9498C70.7768 59.9498 73.3273 62.5004 73.3273 65.6354C73.3273 68.7705 70.7767 71.3211 67.6417 71.3211C64.5066 71.3211 61.9561 68.7705 61.9561 65.6354ZM64.3142 65.6355C64.3142 67.4702 65.8069 68.963 67.6417 68.963C69.4766 68.963 70.9693 67.4702 70.9693 65.6355C70.9693 63.8007 69.4766 62.3079 67.6417 62.3079C65.8069 62.3079 64.3142 63.8006 64.3142 65.6355Z" fill="#E266ED" fill-opacity="0.6"/>
</svg>
