<svg width="118" height="25" viewBox="0 0 118 25" fill="none" xmlns="http://www.w3.org/2000/svg">
<path d="M117.231 11.3096V9.25018H114.673V6.04861L114.587 6.07511L112.185 6.81006L112.138 6.82445V9.25029H108.346V7.89889C108.346 7.26963 108.487 6.78808 108.764 6.46694C109.04 6.14965 109.434 5.98834 109.936 5.98834C110.297 5.98834 110.671 6.07341 111.047 6.24118L111.142 6.28332V4.1145L111.097 4.09819C110.746 3.972 110.269 3.90845 109.677 3.90845C108.931 3.90845 108.253 4.07077 107.662 4.39248C107.071 4.71465 106.606 5.17455 106.28 5.75929C105.955 6.34335 105.79 7.01792 105.79 7.76442V9.25018H104.009V11.3096H105.79V19.9854H108.346V11.3096H112.138V16.8229C112.138 19.0936 113.209 20.2442 115.321 20.2442C115.668 20.2442 116.034 20.2036 116.407 20.1239C116.786 20.0422 117.045 19.9605 117.197 19.8733L117.231 19.8533V17.7749L117.127 17.8437C116.988 17.9361 116.815 18.0117 116.613 18.0678C116.409 18.125 116.239 18.1537 116.108 18.1537C115.613 18.1537 115.247 18.0204 115.02 17.7572C114.79 17.4917 114.673 17.0274 114.673 16.3778V11.3096H117.231ZM98.3006 18.154C97.3728 18.154 96.6412 17.8464 96.1257 17.2403C95.607 16.6312 95.3442 15.7629 95.3442 14.6595C95.3442 13.5212 95.607 12.6303 96.1259 12.0104C96.6418 11.3946 97.3663 11.0821 98.2798 11.0821C99.1662 11.0821 99.8718 11.3806 100.377 11.9698C100.885 12.562 101.143 13.4458 101.143 14.5973C101.143 15.7631 100.901 16.6585 100.423 17.2576C99.9478 17.852 99.2339 18.154 98.3006 18.154ZM98.4143 8.99156C96.6441 8.99156 95.2381 9.51026 94.2355 10.5333C93.2337 11.5564 92.7258 12.9723 92.7258 14.7419C92.7258 16.4227 93.2216 17.7747 94.1996 18.7596C95.1777 19.7449 96.5087 20.244 98.1554 20.244C99.8714 20.244 101.249 19.7181 102.251 18.6809C103.253 17.6449 103.761 16.2424 103.761 14.5141C103.761 12.807 103.285 11.4449 102.345 10.4666C101.404 9.48772 100.082 8.99156 98.4143 8.99156ZM88.6041 8.99156C87.4 8.99156 86.4039 9.29957 85.6431 9.90685C84.8775 10.5178 84.4892 11.319 84.4892 12.2885C84.4892 12.7925 84.573 13.2402 84.738 13.6199C84.9039 14.0008 85.1607 14.3362 85.5019 14.6177C85.8405 14.897 86.3632 15.1894 87.0557 15.487C87.638 15.7266 88.0722 15.9293 88.348 16.089C88.6176 16.2455 88.8089 16.4029 88.917 16.5561C89.022 16.7061 89.0753 16.9114 89.0753 17.1647C89.0753 17.8859 88.5352 18.2368 87.4238 18.2368C87.0116 18.2368 86.5413 18.1508 86.0263 17.9811C85.5149 17.8139 85.0322 17.5692 84.5951 17.2554L84.489 17.1793V19.6405L84.5279 19.6586C84.8896 19.8256 85.3457 19.9664 85.8832 20.0772C86.4197 20.1881 86.9071 20.2445 87.3306 20.2445C88.6372 20.2445 89.6895 19.935 90.4573 19.3241C91.2299 18.709 91.6215 17.8889 91.6215 16.8858C91.6215 16.1622 91.4107 15.5416 90.9952 15.0412C90.5825 14.5448 89.8663 14.0891 88.8673 13.6862C88.0714 13.3668 87.5615 13.1016 87.3512 12.8981C87.1484 12.7014 87.0454 12.4233 87.0454 12.0711C87.0454 11.7589 87.1725 11.5088 87.4334 11.3063C87.6963 11.1027 88.0623 10.9992 88.5213 10.9992C88.9473 10.9992 89.383 11.0665 89.8164 11.1983C90.2495 11.3302 90.6299 11.5068 90.9474 11.7228L91.0519 11.7942V9.45951L91.0118 9.4423C90.7188 9.31667 90.3325 9.20917 89.8633 9.12195C89.3963 9.03529 88.9726 8.99156 88.6041 8.99156ZM77.8249 18.154C76.8973 18.154 76.1655 17.8464 75.6501 17.2403C75.1313 16.6312 74.8689 15.7631 74.8689 14.6595C74.8689 13.5212 75.1316 12.6303 75.6507 12.0104C76.1661 11.3946 76.8905 11.0821 77.8044 11.0821C78.6905 11.0821 79.3961 11.3806 79.9017 11.9698C80.4097 12.562 80.6674 13.4458 80.6674 14.5973C80.6674 15.7631 80.4249 16.6585 79.9469 17.2576C79.4721 17.852 78.7586 18.154 77.8249 18.154ZM77.9389 8.99156C76.1682 8.99156 74.7621 9.51026 73.7602 10.5333C72.7583 11.5564 72.2501 12.9723 72.2501 14.7419C72.2501 16.4234 72.7462 17.7747 73.7243 18.7596C74.7023 19.7449 76.0332 20.244 77.6799 20.244C79.3956 20.244 80.774 19.7181 81.7761 18.6809C82.7778 17.6449 83.2856 16.2424 83.2856 14.5141C83.2856 12.807 82.8092 11.4449 81.8691 10.4666C80.9285 9.48772 79.6061 8.99156 77.9389 8.99156ZM68.3696 11.1093V9.25018H65.8444V19.9852H68.3696V14.4938C68.3696 13.5601 68.5813 12.7929 68.9991 12.2135C69.4115 11.641 69.9612 11.3509 70.6322 11.3509C70.8597 11.3509 71.115 11.3884 71.3915 11.4626C71.6652 11.5364 71.8634 11.6164 71.9804 11.7007L72.0865 11.7776V9.23183L72.0456 9.21427C71.8104 9.11436 71.4777 9.06395 71.0568 9.06395C70.4222 9.06395 69.8543 9.26785 69.3679 9.6693C68.941 10.0222 68.6324 10.506 68.3965 11.1093H68.3696ZM61.3222 8.99156C60.1637 8.99156 59.1304 9.23998 58.2515 9.72968C57.3708 10.2205 56.6896 10.9213 56.2262 11.8123C55.7648 12.7012 55.5306 13.7395 55.5306 14.8974C55.5306 15.9117 55.7577 16.8425 56.2066 17.6629C56.6557 18.4846 57.2915 19.1274 58.0962 19.5733C58.8998 20.0186 59.8286 20.2444 60.8569 20.2444C62.057 20.2444 63.0816 20.0044 63.9031 19.5313L63.9362 19.5122V17.1988L63.8301 17.2763C63.458 17.5473 63.0421 17.7637 62.5947 17.9196C62.1484 18.0753 61.7415 18.154 61.3847 18.154C60.3938 18.154 59.5984 17.844 59.021 17.2328C58.4424 16.6207 58.149 15.7613 58.149 14.6798C58.149 13.5915 58.4549 12.71 59.0579 12.0596C59.6591 11.4111 60.456 11.0821 61.4263 11.0821C62.2563 11.0821 63.0651 11.3631 63.8303 11.9182L63.9362 11.9951V9.5575L63.902 9.53824C63.6141 9.37705 63.2213 9.24395 62.7338 9.14302C62.2483 9.04231 61.7734 8.99156 61.3222 8.99156ZM53.7914 9.25029H51.2662V19.9852H53.7914V9.25029ZM52.5546 4.67715C52.139 4.67715 51.7765 4.81863 51.4787 5.099C51.1797 5.38015 51.028 5.73415 51.028 6.15191C51.028 6.56311 51.1778 6.91065 51.4741 7.18433C51.7684 7.45722 52.132 7.59553 52.5547 7.59553C52.9774 7.59553 53.3424 7.45722 53.6402 7.18478C53.9399 6.91065 54.0919 6.56323 54.0919 6.15191C54.0919 5.74876 53.944 5.39839 53.6525 5.11033C53.3613 4.82283 52.9918 4.67715 52.5546 4.67715ZM46.2541 8.45825V19.9852H48.8312V5.00577H45.2644L40.7308 16.132L36.3312 5.00577H32.6191V19.9851H35.0409V8.45712H35.1241L39.7699 19.9852H41.5976L46.1709 8.45825H46.2541Z" fill="#C9B8CC"/>
<path d="M12.0091 11.8792H0.129883V0H12.0091V11.8792Z" fill="#C9B8CC"/>
<path d="M25.1251 11.8792H13.2461V0H25.1251V11.8792Z" fill="#C9B8CC"/>
<path d="M12.0088 25H0.129883V13.1208H12.0088V25Z" fill="#C9B8CC"/>
<path d="M25.1251 25H13.2461V13.1208H25.1251V25Z" fill="#C9B8CC"/>
</svg>
