<svg width="80" height="81" viewBox="0 0 80 81" fill="none" xmlns="http://www.w3.org/2000/svg">
<path opacity="0.3" d="M40.0007 14.1976C25.3007 14.1976 13.334 26.1643 13.334 40.8643C13.334 55.5643 25.3007 67.531 40.0007 67.531C54.7006 67.531 66.6673 55.5643 66.6673 40.8643C66.6673 26.1643 54.7006 14.1976 40.0007 14.1976ZM42.934 60.0643V64.1976H37.1007V59.8976C34.634 59.2976 29.134 57.331 27.034 50.031L32.534 47.7976C32.734 48.531 34.4673 54.7643 40.534 54.7643C43.634 54.7643 47.134 53.1643 47.134 49.3976C47.134 46.1976 44.8006 44.531 39.534 42.631C35.8673 41.331 28.3673 39.1976 28.3673 31.5976C28.3673 31.2643 28.4007 23.5976 37.1007 21.731V17.531H42.934V21.6643C49.0673 22.731 51.3007 27.631 51.8007 29.0976L46.534 31.331C46.1673 30.1643 44.5673 26.8643 40.2007 26.8643C37.8673 26.8643 34.1673 28.0976 34.1673 31.4976C34.1673 34.6643 37.034 35.8643 42.9673 37.831C50.9673 40.5976 53.0006 44.6643 53.0006 49.331C53.0006 58.0976 44.6673 59.7643 42.934 60.0643Z" fill="url(#paint0_linear)"/>
<path d="M42.9657 37.8643C37.0324 35.8976 34.1657 34.6643 34.1657 31.5309C34.1657 28.1309 37.8657 26.8976 40.199 26.8976C44.5657 26.8976 46.1657 30.1976 46.5324 31.3643L51.799 29.1309C51.299 27.6643 49.0657 22.7643 42.9324 21.6976V17.5309H37.099V21.7309C28.4324 23.5976 28.3657 31.2309 28.3657 31.5976C28.3657 39.1643 35.8657 41.2976 39.5324 42.6309C44.799 44.4976 47.1324 46.1976 47.1324 49.3976C47.1324 53.1643 43.6324 54.7643 40.5324 54.7643C34.4657 54.7643 32.7324 48.5309 32.5324 47.7976L26.999 50.0309C29.099 57.3309 34.599 59.2976 37.0657 59.8976V64.1976H42.899V60.0643C44.6324 59.7643 52.9657 58.0976 52.9657 49.3309C52.999 44.6976 50.9657 40.6309 42.9657 37.8643Z" fill="url(#paint1_linear)"/>
<path d="M40.0003 7.53094C21.6003 7.53094 6.66699 22.4643 6.66699 40.8643C6.66699 59.2643 21.6003 74.1976 40.0003 74.1976C58.4003 74.1976 73.3337 59.2643 73.3337 40.8643C73.3337 22.4643 58.4003 7.53094 40.0003 7.53094ZM40.0003 67.531C25.3003 67.531 13.3337 55.5643 13.3337 40.8643C13.3337 26.1643 25.3003 14.1976 40.0003 14.1976C54.7003 14.1976 66.667 26.1643 66.667 40.8643C66.667 55.5643 54.7003 67.531 40.0003 67.531Z" fill="url(#paint2_linear)"/>
<defs>
<linearGradient id="paint0_linear" x1="13.334" y1="14.1976" x2="81.6828" y2="40.3276" gradientUnits="userSpaceOnUse">
<stop stop-color="#6759FF"/>
<stop offset="1" stop-color="#2E2E99"/>
</linearGradient>
<linearGradient id="paint1_linear" x1="26.999" y1="17.5309" x2="63.4893" y2="25.2934" gradientUnits="userSpaceOnUse">
<stop stop-color="#6759FF"/>
<stop offset="1" stop-color="#2E2E99"/>
</linearGradient>
<linearGradient id="paint2_linear" x1="6.66699" y1="7.53094" x2="92.103" y2="40.1934" gradientUnits="userSpaceOnUse">
<stop stop-color="#6759FF"/>
<stop offset="1" stop-color="#2E2E99"/>
</linearGradient>
</defs>
</svg>
