<svg width="80" height="81" viewBox="0 0 80 81" fill="none" xmlns="http://www.w3.org/2000/svg">
<path opacity="0.3" d="M23.333 57.5312H56.6664V24.1979H23.333V57.5312Z" fill="url(#paint0_linear)"/>
<path d="M70 37.5309V30.8643H63.3333V24.1976C63.3333 20.5309 60.3333 17.5309 56.6667 17.5309H50V10.8643H43.3333V17.5309H36.6667V10.8643H30V17.5309H23.3333C19.6667 17.5309 16.6667 20.5309 16.6667 24.1976V30.8643H10V37.5309H16.6667V44.1976H10V50.8643H16.6667V57.5309C16.6667 61.1976 19.6667 64.1976 23.3333 64.1976H30V70.8643H36.6667V64.1976H43.3333V70.8643H50V64.1976H56.6667C60.3333 64.1976 63.3333 61.1976 63.3333 57.5309V50.8643H70V44.1976H63.3333V37.5309H70ZM56.6667 57.5309H23.3333V24.1976H56.6667V57.5309Z" fill="url(#paint1_linear)"/>
<path opacity="0.3" d="M34.4488 43.1944H32.2266V47.6389H34.4488V43.1944Z" fill="url(#paint2_linear)"/>
<path opacity="0.3" d="M47.7691 43.1944H45.5469V47.6389H47.7691V43.1944Z" fill="url(#paint3_linear)"/>
<path d="M40 29.8645C34.4778 29.8645 30 34.3423 30 39.8645V47.6423C30 48.8645 31 49.8645 32.2222 49.8645H36.6667V40.9756H32.2222V39.8645C32.2222 35.5645 35.7 32.0867 40 32.0867C44.3 32.0867 47.7778 35.5645 47.7778 39.8645V40.9756H43.3333V49.8645H47.7778C49 49.8645 50 48.8645 50 47.6423V39.8645C50 34.3423 45.5222 29.8645 40 29.8645ZM34.4444 43.1978V47.6423H32.2222V43.1978H34.4444ZM47.7778 47.6423H45.5556V43.1978H47.7778V47.6423Z" fill="url(#paint4_linear)"/>
<defs>
<linearGradient id="paint0_linear" x1="23.333" y1="24.1979" x2="66.051" y2="40.5291" gradientUnits="userSpaceOnUse">
<stop stop-color="#6759FF"/>
<stop offset="1" stop-color="#2E2E99"/>
</linearGradient>
<linearGradient id="paint1_linear" x1="10" y1="10.8643" x2="86.8924" y2="40.2605" gradientUnits="userSpaceOnUse">
<stop stop-color="#6759FF"/>
<stop offset="1" stop-color="#2E2E99"/>
</linearGradient>
<linearGradient id="paint2_linear" x1="32.2266" y1="43.1944" x2="35.3756" y2="43.7964" gradientUnits="userSpaceOnUse">
<stop stop-color="#6759FF"/>
<stop offset="1" stop-color="#2E2E99"/>
</linearGradient>
<linearGradient id="paint3_linear" x1="45.5469" y1="43.1944" x2="48.6959" y2="43.7964" gradientUnits="userSpaceOnUse">
<stop stop-color="#6759FF"/>
<stop offset="1" stop-color="#2E2E99"/>
</linearGradient>
<linearGradient id="paint4_linear" x1="30" y1="29.8645" x2="55.6308" y2="39.6632" gradientUnits="userSpaceOnUse">
<stop stop-color="#6759FF"/>
<stop offset="1" stop-color="#2E2E99"/>
</linearGradient>
</defs>
</svg>
