<svg width="95" height="25" viewBox="0 0 95 25" fill="none" xmlns="http://www.w3.org/2000/svg">
<path d="M64.4632 6.83508C64.0643 9.45438 62.0641 9.45438 60.1297 9.45438H59.029L59.8014 4.5639C59.8484 4.26848 60.1025 4.05114 60.4016 4.05114H60.9069C62.224 4.05114 63.4678 4.05114 64.1095 4.80099C64.4924 5.24977 64.6081 5.91588 64.4632 6.83508ZM63.6212 0.000831604H56.3241C56.0824 0.000951767 55.8487 0.0872116 55.6648 0.244123C55.481 0.401037 55.3592 0.61833 55.3211 0.856995L52.3726 19.5675C52.359 19.6542 52.3643 19.7429 52.3882 19.8273C52.4122 19.9118 52.4541 19.9901 52.5111 20.0569C52.5681 20.1236 52.6389 20.1773 52.7186 20.2141C52.7983 20.2509 52.885 20.2701 52.9728 20.2703H56.7173C57.0664 20.2703 57.3637 20.0162 57.4183 19.6719L58.2556 14.3656C58.3327 13.8735 58.758 13.5094 59.2566 13.5094H61.5655C66.3731 13.5094 69.1467 11.1846 69.8712 6.57353C70.1976 4.55825 69.8843 2.97388 68.9407 1.86463C67.9029 0.645306 66.0636 -0.000108719 63.6221 -0.000108719" fill="#C9B8CC"/>
<path d="M12.4156 6.83524C12.0167 9.45454 10.0164 9.45454 8.08113 9.45454H6.98035L7.75278 4.56406C7.79982 4.26863 8.05385 4.0513 8.35303 4.0513H8.85826C10.1754 4.0513 11.4192 4.0513 12.0609 4.80115C12.4447 5.24993 12.5605 5.91604 12.4156 6.83524ZM11.5735 0.000991821H4.27638C3.77774 0.000991821 3.35247 0.364155 3.27438 0.857155L0.324857 19.5676C0.311122 19.6544 0.316361 19.7431 0.34021 19.8276C0.36406 19.9122 0.405953 19.9906 0.463005 20.0574C0.520057 20.1242 0.590911 20.1778 0.670687 20.2146C0.750463 20.2514 0.837265 20.2704 0.925112 20.2704H4.40998C4.90862 20.2704 5.33294 19.9073 5.41103 19.4143L6.20792 14.3667C6.28507 13.8737 6.71033 13.5105 7.20897 13.5105H9.51779C14.3255 13.5105 17.0991 11.1847 17.8235 6.57369C18.15 4.55841 17.8367 2.97404 16.893 1.86479C15.8553 0.645466 14.0159 5.14984e-05 11.5745 5.14984e-05L11.5735 0.000991821ZM28.5152 13.5528C28.1765 15.5493 26.5931 16.89 24.5712 16.89C23.5579 16.89 22.746 16.5635 22.2248 15.9463C21.7073 15.3348 21.5135 14.4626 21.6772 13.4926C21.9914 11.5131 23.6021 10.1301 25.593 10.1301C26.5855 10.1301 27.39 10.4594 27.9225 11.0822C28.4578 11.7097 28.6686 12.5866 28.5152 13.5528ZM33.385 6.75057H29.8907C29.7454 6.75039 29.6049 6.80217 29.4945 6.89655C29.3841 6.99093 29.311 7.12169 29.2886 7.26521L29.1362 8.2418L28.8915 7.88804C28.1351 6.79008 26.4482 6.42221 24.7641 6.42221C20.9038 6.42221 17.6062 9.34822 16.9645 13.4503C16.6305 15.4985 17.1047 17.4545 18.2657 18.8196C19.3317 20.0738 20.853 20.5959 22.666 20.5959C25.7783 20.5959 27.5038 18.5976 27.5038 18.5976L27.3476 19.5686C27.3339 19.6554 27.3391 19.7442 27.363 19.8288C27.3869 19.9134 27.4289 19.9918 27.4861 20.0587C27.5432 20.1255 27.6142 20.1791 27.6941 20.2158C27.774 20.2525 27.8609 20.2715 27.9488 20.2714H31.095C31.5936 20.2714 32.0189 19.9091 32.097 19.4152L33.9862 7.45431C33.9998 7.36742 33.9944 7.2786 33.9704 7.19399C33.9463 7.10938 33.9043 7.03097 33.847 6.96418C33.7898 6.89739 33.7188 6.84379 33.6389 6.80707C33.5589 6.77036 33.472 6.7514 33.384 6.75151" fill="#C9B8CC"/>
<path d="M80.5624 13.5528C80.2237 15.5493 78.6403 16.89 76.6184 16.89C75.6051 16.89 74.7932 16.5635 74.272 15.9463C73.7545 15.3348 73.5607 14.4626 73.7244 13.4926C74.0386 11.5131 75.6484 10.1301 77.6402 10.1301C78.6327 10.1301 79.4372 10.4594 79.9697 11.0822C80.505 11.7097 80.7157 12.5866 80.5624 13.5528ZM85.4322 6.75057H81.9379C81.7926 6.7504 81.6521 6.80218 81.5417 6.89656C81.4312 6.99094 81.3582 7.12169 81.3358 7.26521L81.1833 8.2418L80.9387 7.88805C80.1823 6.79009 78.4954 6.42222 76.8113 6.42222C72.952 6.42222 69.6543 9.34823 69.0117 13.4503C68.6777 15.4985 69.1529 17.4545 70.3139 18.8196C71.3798 20.0738 72.9012 20.5959 74.7142 20.5959C77.8274 20.5959 79.5529 18.5976 79.5529 18.5976L79.3967 19.5686C79.3826 19.6553 79.3876 19.744 79.4113 19.8287C79.435 19.9133 79.4768 19.9917 79.5338 20.0586C79.5908 20.1255 79.6617 20.1791 79.7415 20.2159C79.8213 20.2526 79.9081 20.2715 79.996 20.2714H83.1412C83.6399 20.2714 84.0651 19.9091 84.1442 19.4152L86.0334 7.45432C86.047 7.36742 86.0416 7.27861 86.0175 7.19399C85.9935 7.10938 85.9515 7.03098 85.8942 6.96419C85.837 6.89739 85.766 6.84379 85.686 6.80708C85.6061 6.77036 85.5192 6.75141 85.4312 6.75151" fill="#C9B8CC"/>
<path d="M51.9957 6.75149H48.4826C48.1468 6.75149 47.8335 6.91802 47.6453 7.19651L42.8 14.3318L40.7461 7.47499C40.6834 7.26585 40.5551 7.08246 40.38 6.95197C40.205 6.82149 39.9926 6.75086 39.7742 6.75055H36.3223C36.2255 6.7506 36.1301 6.77373 36.044 6.81802C35.958 6.86232 35.8837 6.9265 35.8274 7.00524C35.7711 7.08398 35.7344 7.17501 35.7203 7.27078C35.7063 7.36655 35.7152 7.4643 35.7465 7.55591L39.6133 18.9081L35.9761 24.0403C35.9118 24.1314 35.8738 24.2384 35.8661 24.3497C35.8585 24.4609 35.8816 24.5721 35.9329 24.6711C35.9841 24.7701 36.0616 24.8532 36.1568 24.9112C36.252 24.9692 36.3613 24.9999 36.4728 25H39.9822C40.3133 25 40.6247 24.8372 40.8148 24.5644L52.4944 7.70644C52.5578 7.61531 52.595 7.50856 52.6021 7.39776C52.6091 7.28697 52.5856 7.17636 52.5342 7.07795C52.4829 6.97954 52.4055 6.89708 52.3106 6.83953C52.2156 6.78198 52.1067 6.75153 51.9957 6.75149Z" fill="#C9B8CC"/>
<path d="M89.5498 0.515509L86.5542 19.5684C86.5406 19.6553 86.546 19.744 86.57 19.8285C86.5939 19.9131 86.6359 19.9914 86.693 20.0582C86.7502 20.125 86.8211 20.1786 86.9009 20.2154C86.9807 20.2522 87.0675 20.2712 87.1554 20.2712H90.167C90.6657 20.2712 91.0909 19.9081 91.169 19.4151L94.1223 0.703678C94.1361 0.616833 94.1308 0.52804 94.1069 0.443424C94.083 0.358809 94.041 0.280388 93.9839 0.213573C93.9267 0.146757 93.8557 0.0931396 93.7758 0.0564175C93.6959 0.0196953 93.609 0.000745773 93.5211 0.000873566H90.151C90.0059 0.00050354 89.8656 0.0521164 89.7553 0.146355C89.645 0.240593 89.5721 0.37122 89.5498 0.514568" fill="#C9B8CC"/>
</svg>
