<svg width="80" height="81" viewBox="0 0 80 81" fill="none" xmlns="http://www.w3.org/2000/svg">
<path opacity="0.3" d="M60 67.5309H20V27.5309H26.6667V34.1976C26.6667 36.0309 28.1667 37.5309 30 37.5309C31.8333 37.5309 33.3333 36.0309 33.3333 34.1976V27.5309H46.6667V34.1976C46.6667 36.0309 48.1667 37.5309 50 37.5309C51.8333 37.5309 53.3333 36.0309 53.3333 34.1976V27.5309H60V67.5309Z" fill="url(#paint0_linear)"/>
<path d="M59.9997 20.8643H53.333C53.333 13.4976 47.3663 7.53094 39.9997 7.53094C32.633 7.53094 26.6663 13.4976 26.6663 20.8643H19.9997C16.333 20.8643 13.333 23.8643 13.333 27.5309V67.531C13.333 71.1976 16.333 74.1976 19.9997 74.1976H59.9997C63.6663 74.1976 66.6663 71.1976 66.6663 67.531V27.5309C66.6663 23.8643 63.6663 20.8643 59.9997 20.8643ZM39.9997 14.1976C43.6663 14.1976 46.6663 17.1976 46.6663 20.8643H33.333C33.333 17.1976 36.333 14.1976 39.9997 14.1976ZM59.9997 67.531H19.9997V27.5309H26.6663V34.1976C26.6663 36.031 28.1663 37.531 29.9997 37.531C31.833 37.531 33.333 36.031 33.333 34.1976V27.5309H46.6663V34.1976C46.6663 36.031 48.1663 37.531 49.9997 37.531C51.833 37.531 53.333 36.031 53.333 34.1976V27.5309H59.9997V67.531Z" fill="url(#paint1_linear)"/>
<defs>
<linearGradient id="paint0_linear" x1="20" y1="27.5309" x2="71.2616" y2="47.1284" gradientUnits="userSpaceOnUse">
<stop stop-color="#6759FF"/>
<stop offset="1" stop-color="#2E2E99"/>
</linearGradient>
<linearGradient id="paint1_linear" x1="13.333" y1="7.53094" x2="84.9704" y2="29.4407" gradientUnits="userSpaceOnUse">
<stop stop-color="#6759FF"/>
<stop offset="1" stop-color="#2E2E99"/>
</linearGradient>
</defs>
</svg>
