<svg width="80" height="81" viewBox="0 0 80 81" fill="none" xmlns="http://www.w3.org/2000/svg">
<path d="M60 37.5309C60 39.7643 60 41.9643 60 44.1976C64 44.1976 69.2 44.1976 73.3333 44.1976C73.3333 41.9643 73.3333 39.7643 73.3333 37.5309C69.2 37.5309 64 37.5309 60 37.5309Z" fill="url(#paint0_linear)"/>
<path d="M53.333 59.5642C56.533 61.9309 60.6997 65.0642 63.9997 67.5309C65.333 65.7642 66.6663 63.9642 67.9997 62.1976C64.6997 59.7309 60.533 56.5976 57.333 54.1976C55.9997 55.9976 54.6663 57.7976 53.333 59.5642Z" fill="url(#paint1_linear)"/>
<path d="M67.9997 19.5309C66.6663 17.7642 65.333 15.9642 63.9997 14.1976C60.6997 16.6642 56.533 19.7976 53.333 22.1976C54.6663 23.9642 55.9997 25.7642 57.333 27.5309C60.533 25.1309 64.6997 22.0309 67.9997 19.5309Z" fill="url(#paint2_linear)"/>
<path d="M13.3337 30.8643C9.66699 30.8643 6.66699 33.8643 6.66699 37.5309V44.1976C6.66699 47.8643 9.66699 50.8643 13.3337 50.8643H16.667V64.1976H23.3337V50.8643H26.667L43.3337 60.8643V20.8643L26.667 30.8643H13.3337ZM30.1003 36.5643L36.667 32.6309V49.0976L30.1003 45.1643L28.5003 44.1976H26.667H13.3337V37.5309H26.667H28.5003L30.1003 36.5643Z" fill="url(#paint3_linear)"/>
<path d="M51.667 40.8641C51.667 36.4307 49.7337 32.4307 46.667 29.6974V51.9974C49.7337 49.2974 51.667 45.2974 51.667 40.8641Z" fill="url(#paint4_linear)"/>
<path opacity="0.3" d="M30.0997 36.5638L36.6663 32.6305V49.0971L30.0997 45.1638L28.4997 44.1971H26.6663H13.333V37.5305H26.6663H28.4997L30.0997 36.5638Z" fill="url(#paint5_linear)"/>
<defs>
<linearGradient id="paint0_linear" x1="60" y1="37.5309" x2="72.3591" y2="46.9808" gradientUnits="userSpaceOnUse">
<stop stop-color="#6759FF"/>
<stop offset="1" stop-color="#2E2E99"/>
</linearGradient>
<linearGradient id="paint1_linear" x1="53.333" y1="54.1976" x2="71.6387" y2="61.8957" gradientUnits="userSpaceOnUse">
<stop stop-color="#6759FF"/>
<stop offset="1" stop-color="#2E2E99"/>
</linearGradient>
<linearGradient id="paint2_linear" x1="53.333" y1="14.1976" x2="71.6387" y2="21.8957" gradientUnits="userSpaceOnUse">
<stop stop-color="#6759FF"/>
<stop offset="1" stop-color="#2E2E99"/>
</linearGradient>
<linearGradient id="paint3_linear" x1="6.66699" y1="20.8643" x2="55.4226" y2="36.6361" gradientUnits="userSpaceOnUse">
<stop stop-color="#6759FF"/>
<stop offset="1" stop-color="#2E2E99"/>
</linearGradient>
<linearGradient id="paint4_linear" x1="46.667" y1="29.6974" x2="53.9576" y2="30.3223" gradientUnits="userSpaceOnUse">
<stop stop-color="#6759FF"/>
<stop offset="1" stop-color="#2E2E99"/>
</linearGradient>
<linearGradient id="paint5_linear" x1="13.333" y1="32.6305" x2="39.8301" y2="46.9846" gradientUnits="userSpaceOnUse">
<stop stop-color="#6759FF"/>
<stop offset="1" stop-color="#2E2E99"/>
</linearGradient>
</defs>
</svg>
