<svg width="75" height="75" viewBox="0 0 75 75" fill="none" xmlns="http://www.w3.org/2000/svg">
<rect width="75" height="75" rx="37.5" fill="#B8B2FF" fill-opacity="0.2"/>
<path d="M29.6705 31.89H33.7805C33.9305 30.51 34.8005 29.19 36.8405 29.19C38.7605 29.19 39.8105 30.21 39.8105 31.92C39.8105 34.08 38.0105 34.77 35.5505 34.77H34.6805V38.22H35.5505C38.6705 38.22 40.2305 39.12 40.2305 41.58C40.2305 43.32 39.1505 44.64 37.0505 44.64C34.8005 44.64 33.5405 43.29 33.4505 41.4H29.3705C29.5505 45.99 32.8205 48.15 37.1405 48.15C41.7305 48.15 44.2505 45.51 44.2505 41.94C44.2505 38.97 42.7805 37.17 40.5605 36.48V36.36C42.1505 35.82 43.8605 34.14 43.8605 31.41C43.8605 28.17 41.4605 25.62 36.9605 25.62C32.7605 25.62 29.8805 27.84 29.6705 31.89Z" fill="#6759FF"/>
</svg>
